<svg xmlns="http://www.w3.org/2000/svg" id="baseline-visibility-24px" width="24" height="24" viewBox="0 0 24 24">
    <defs>
        <style>
            .cls-1{fill:none}.cls-2{fill:#4d7199}
        </style>
    </defs>
    <path id="Path_102843" d="M0 0h24v24H0z" class="cls-1" data-name="Path 102843"/>
    <path id="Path_102844" d="M12 4.5A11.827 11.827 0 0 0 1 12a11.817 11.817 0 0 0 22 0 11.827 11.827 0 0 0-11-7.5zM12 17a5 5 0 1 1 5-5 5 5 0 0 1-5 5zm0-8a3 3 0 1 0 3 3 3 3 0 0 0-3-3z" class="cls-2" data-name="Path 102844"/>
</svg>
